# xmcd
#
# Track frame offsets:
#	150
#	16814
#	38863
#	63753
#	89729
#	119587
#	133525
#	149957
#	172281
#	182312
#	199366
#	230561
#	244851
#	273692
#	285538
#
# Disc length: 4158 seconds
# Revision: 0
# Processed by: cddbd v1.5.2PL0 Copyright (c) Steve Scherf et al.
# Submitted via: dBpowerAMP V12.0
#
DISCID=ec103c0f
DTITLE=Various Artist - The Blues Magazine: The Cream Of Contemporary Electric Blues
DYEAR=2012
DGENRE=Blues
TTITLE0=Walter Trout - The Sky Is Falling Down
TTITLE1=Johnny Sansone - The Lord Is Waiting And The Devil Is Too
TTITLE2=Henrick Freischlader - Still Frame Replay
TTITLE3=Royal Sothern Brotherhood - Sweet Jelly Donut
TTITLE4=Laurence Jones - Thunder In The Sky
TTITLE5=Joe Bonamassa - I Got All You Need
TTITLE6=Nat Martin - Tell Me Pretty Baby
TTITLE7=Mitch Laddie - Paper In Your Pocket
TTITLE8=Hat Fitz and Cara - Company Underground
TTITLE9=Giles Robson and The Dirty Aces - Stick To The Promise
TTITLE10=Danny Bryant - Heartbreaker
TTITLE11=Federal Charm - I'm Not Gonna Beg
TTITLE12=Larry Miller - The Devil In The Detail
TTITLE13=Alex McKown - Crossing Boundaries
TTITLE14=Matt Edwards - A Whole Heap Of Trouble
EXTD=
EXTT0=
EXTT1=
EXTT2=
EXTT3=
EXTT4=
EXTT5=
EXTT6=
EXTT7=
EXTT8=
EXTT9=
EXTT10=
EXTT11=
EXTT12=
EXTT13=
EXTT14=
PLAYORDER=
